<?xml version="1.0" encoding="UTF-8" standalone="no"?>
<!-- Created with Inkscape (http://www.inkscape.org/) -->

<svg
   xmlns:dc="http://purl.org/dc/elements/1.1/"
   xmlns:cc="http://creativecommons.org/ns#"
   xmlns:rdf="http://www.w3.org/1999/02/22-rdf-syntax-ns#"
   xmlns:svg="http://www.w3.org/2000/svg"
   xmlns="http://www.w3.org/2000/svg"
   xmlns:sodipodi="http://sodipodi.sourceforge.net/DTD/sodipodi-0.dtd"
   xmlns:inkscape="http://www.inkscape.org/namespaces/inkscape"
   id="svg3533"
   version="1.1"
   inkscape:version="0.91 r"
   xml:space="preserve"
   width="404.33124"
   height="126.12125"
   viewBox="0 0 404.33124 126.12125"
   sodipodi:docname="control-system.svg"><metadata
     id="metadata3539"><rdf:RDF><cc:Work
         rdf:about=""><dc:format>image/svg+xml</dc:format><dc:type
           rdf:resource="http://purl.org/dc/dcmitype/StillImage" /><dc:title></dc:title></cc:Work></rdf:RDF></metadata><defs
     id="defs3537"><clipPath
       clipPathUnits="userSpaceOnUse"
       id="clipPath3549"><path
         d="m 0,100.897 323.465,0 L 323.465,0 0,0 0,100.897 Z"
         id="path3551"
         inkscape:connector-curvature="0" /></clipPath><clipPath
       clipPathUnits="userSpaceOnUse"
       id="clipPath3561"><path
         d="m 0,100.897 323.465,0 L 323.465,0 0,0 0,100.897 Z"
         id="path3563"
         inkscape:connector-curvature="0" /></clipPath><clipPath
       clipPathUnits="userSpaceOnUse"
       id="clipPath3595"><path
         d="m 0,100.897 323.465,0 L 323.465,0 0,0 0,100.897 Z"
         id="path3597"
         inkscape:connector-curvature="0" /></clipPath><clipPath
       clipPathUnits="userSpaceOnUse"
       id="clipPath3627"><path
         d="m 0,100.897 323.465,0 L 323.465,0 0,0 0,100.897 Z"
         id="path3629"
         inkscape:connector-curvature="0" /></clipPath><clipPath
       clipPathUnits="userSpaceOnUse"
       id="clipPath3641"><path
         d="m 0,100.897 323.465,0 L 323.465,0 0,0 0,100.897 Z"
         id="path3643"
         inkscape:connector-curvature="0" /></clipPath></defs><sodipodi:namedview
     pagecolor="#ffffff"
     bordercolor="#666666"
     borderopacity="1"
     objecttolerance="10"
     gridtolerance="10"
     guidetolerance="10"
     inkscape:pageopacity="0"
     inkscape:pageshadow="2"
     inkscape:window-width="1920"
     inkscape:window-height="1031"
     id="namedview3535"
     showgrid="false"
     inkscape:zoom="3.759294"
     inkscape:cx="105.30279"
     inkscape:cy="47.167559"
     inkscape:window-x="0"
     inkscape:window-y="0"
     inkscape:window-maximized="1"
     inkscape:current-layer="g3541" /><g
     id="g3541"
     inkscape:groupmode="layer"
     inkscape:label="control-system_01"
     transform="matrix(1.25,0,0,-1.25,0,126.12125)"><path
       d="m 98.365,65.801 64.455,0 0,34.597 -64.455,0 0,-34.597 z"
       style="fill:#ffffff;fill-opacity:1;fill-rule:nonzero;stroke:none"
       id="path3543"
       inkscape:connector-curvature="0" /><g
       id="g3545"><g
         id="g3547"
         clip-path="url(#clipPath3549)"><path
           d="m 162.82,65.801 -64.456,0 0,34.597 64.456,0 0,-34.597 z"
           style="fill:none;stroke:#373535;stroke-width:1;stroke-linecap:butt;stroke-linejoin:miter;stroke-miterlimit:10;stroke-dasharray:none;stroke-opacity:1"
           id="path3553"
           inkscape:connector-curvature="0" /></g></g><path
       d="m 202.676,65.801 64.456,0 0,34.597 -64.456,0 0,-34.597 z"
       style="fill:#ffffff;fill-opacity:1;fill-rule:nonzero;stroke:none"
       id="path3555"
       inkscape:connector-curvature="0" /><g
       id="g3557"><g
         id="g3559"
         clip-path="url(#clipPath3561)"><path
           d="m 267.133,65.801 -64.456,0 0,34.597 64.456,0 0,-34.597 z"
           style="fill:none;stroke:#373535;stroke-width:1;stroke-linecap:butt;stroke-linejoin:miter;stroke-miterlimit:10;stroke-dasharray:none;stroke-opacity:1"
           id="path3565"
           inkscape:connector-curvature="0" /></g></g><g
       id="g3567"
       transform="translate(162.9585,83.0991)"><path
         d="M 0,0 34.889,0"
         style="fill:none;stroke:#373535;stroke-width:1;stroke-linecap:butt;stroke-linejoin:miter;stroke-miterlimit:10;stroke-dasharray:none;stroke-opacity:1"
         id="path3569"
         inkscape:connector-curvature="0" /></g><g
       id="g3571"
       transform="translate(202.0835,83.0991)"><path
         d="M 0,0 -5.97,-2.439 -4.553,0 -5.97,2.438 0,0 Z"
         style="fill:#373535;fill-opacity:1;fill-rule:nonzero;stroke:none"
         id="path3573"
         inkscape:connector-curvature="0" /></g><g
       id="g3575"
       transform="translate(267.166,83.0991)"><path
         d="M 0,0 38.932,0"
         style="fill:none;stroke:#373535;stroke-width:1;stroke-linecap:butt;stroke-linejoin:miter;stroke-miterlimit:10;stroke-dasharray:none;stroke-opacity:1"
         id="path3577"
         inkscape:connector-curvature="0" /></g><g
       id="g3579"
       transform="translate(310.334,83.0991)"><path
         d="M 0,0 -5.97,-2.439 -4.553,0 -5.97,2.438 0,0 Z"
         style="fill:#373535;fill-opacity:1;fill-rule:nonzero;stroke:none"
         id="path3581"
         inkscape:connector-curvature="0" /></g><g
       id="g3583"
       transform="translate(25.0835,83.0991)"><path
         d="M 0,0 23.264,0"
         style="fill:none;stroke:#373535;stroke-width:1;stroke-linecap:butt;stroke-linejoin:miter;stroke-miterlimit:10;stroke-dasharray:none;stroke-opacity:1"
         id="path3585"
         inkscape:connector-curvature="0" /></g><g
       id="g3587"
       transform="translate(52.5835,83.0991)"><path
         d="M 0,0 -5.97,-2.439 -4.553,0 -5.97,2.438 0,0 Z"
         style="fill:#373535;fill-opacity:1;fill-rule:nonzero;stroke:none"
         id="path3589"
         inkscape:connector-curvature="0" /></g><g
       id="g3591"><g
         id="g3593"
         clip-path="url(#clipPath3595)"><g
           id="g3599"
           transform="translate(70.083,83.0991)"><path
             d="m 0,0 c 0,-4.694 -3.806,-8.5 -8.5,-8.5 -4.694,0 -8.5,3.806 -8.5,8.5 0,4.694 3.806,8.5 8.5,8.5 C -3.806,8.5 0,4.694 0,0 Z"
             style="fill:none;stroke:#373535;stroke-width:1;stroke-linecap:butt;stroke-linejoin:miter;stroke-miterlimit:10;stroke-dasharray:none;stroke-opacity:1"
             id="path3601"
             inkscape:connector-curvature="0" /></g><g
           id="g3603"
           transform="translate(70.583,83.0991)"><path
             d="M 0,0 23.264,0"
             style="fill:none;stroke:#373535;stroke-width:1;stroke-linecap:butt;stroke-linejoin:miter;stroke-miterlimit:10;stroke-dasharray:none;stroke-opacity:1"
             id="path3605"
             inkscape:connector-curvature="0" /></g><g
           id="g3607"
           transform="translate(98.083,83.0991)"><path
             d="M 0,0 -5.97,-2.439 -4.553,0 -5.97,2.438 0,0 Z"
             style="fill:#373535;fill-opacity:1;fill-rule:nonzero;stroke:none"
             id="path3609"
             inkscape:connector-curvature="0" /></g></g></g><text
       transform="matrix(1,0,0,-1,58.3672,84.9238)"
       style="font-variant:normal;font-weight:normal;font-stretch:normal;font-size:12px;font-family:Arial;-inkscape-font-specification:ArialMT;writing-mode:lr-tb;fill:#373535;fill-opacity:1;fill-rule:nonzero;stroke:none"
       id="text3611"><tspan
         x="0"
         y="0"
         id="tspan3613">_</tspan></text>
<text
       transform="matrix(1,0,0,-1,112.8975,86.6694)"
       style="font-variant:normal;font-weight:bold;font-stretch:normal;font-size:7px;font-family:Arial;-inkscape-font-specification:Arial-BoldMT;writing-mode:lr-tb;fill:#373535;fill-opacity:1;fill-rule:nonzero;stroke:none"
       id="text3615"><tspan
         x="0 5.0539999 9.3310003 13.608 15.939 18.662001 22.938999 24.885 26.830999 30.723 33.445999"
         y="0"
         sodipodi:role="line"
         id="tspan3617">Controller/</tspan><tspan
         x="3.885 7.777 11.669 14 18.277 22.169001 24.5 28.777"
         y="8.3999996"
         sodipodi:role="line"
         id="tspan3619">actuator</tspan><tspan
         x="113.449 118.118 120.064 123.956 128.233"
         y="5.3829999"
         sodipodi:role="line"
         id="tspan3621">Plant</tspan></text>
<g
       id="g3623"><g
         id="g3625"
         clip-path="url(#clipPath3627)"><path
           d="m 214.976,12.187 -64.455,0 0,34.598 64.455,0 0,-34.598 z"
           style="fill:#ffffff;fill-opacity:1;fill-rule:nonzero;stroke:#373535;stroke-width:1;stroke-linecap:butt;stroke-linejoin:miter;stroke-miterlimit:10;stroke-dasharray:none;stroke-opacity:1"
           id="path3631"
           inkscape:connector-curvature="0" /></g></g><text
       transform="matrix(1,0,0,-1,170.8828,28.8213)"
       style="font-variant:normal;font-weight:bold;font-stretch:normal;font-size:7px;font-family:Arial;-inkscape-font-specification:Arial-BoldMT;writing-mode:lr-tb;fill:#373535;fill-opacity:1;fill-rule:nonzero;stroke:none"
       id="text3633"><tspan
         x="0 4.6690001 8.5609999 12.838 16.73 21.007"
         y="0"
         sodipodi:role="line"
         id="tspan3635">Sensor</tspan></text>
<path
       inkscape:connector-curvature="0"
       id="path3647"
       style="fill:none;stroke:#373535;stroke-width:1;stroke-linecap:butt;stroke-linejoin:miter;stroke-miterlimit:10;stroke-dasharray:none;stroke-opacity:1"
       d="m 290.75,82.9326 0,-53.167 -70.847,0" /><path
       inkscape:connector-curvature="0"
       id="path3651"
       style="fill:#373535;fill-opacity:1;fill-rule:nonzero;stroke:none"
       d="m 215.667,29.7656 5.97,2.439 -1.417,-2.439 1.417,-2.438 -5.97,2.438 z" /><path
       inkscape:connector-curvature="0"
       id="path3655"
       style="fill:none;stroke:#373535;stroke-width:1;stroke-linecap:butt;stroke-linejoin:miter;stroke-miterlimit:10;stroke-dasharray:none;stroke-opacity:1"
       d="m 150.0625,29.7656 -88.896,0 0,39.931" /><path
       inkscape:connector-curvature="0"
       id="path3659"
       style="fill:#373535;fill-opacity:1;fill-rule:nonzero;stroke:none"
       d="m 61.167,73.9326 2.439,-5.97 -2.439,1.417 -2.438,-1.417 2.438,5.97 z" /><text
       transform="matrix(1,0,0,-1,24.3384,85.4683)"
       style="font-variant:normal;font-weight:normal;font-stretch:normal;font-size:7px;font-family:Arial;-inkscape-font-specification:ArialMT;writing-mode:lr-tb;fill:#373535;fill-opacity:1;fill-rule:nonzero;stroke:none"
       id="text3661"><tspan
         x="0 3.5 7.3920002 9.7229996 13.615 17.507 50.280998 54.950001 57.280998 59.612 63.504002 150.62601 152.57201 156.464 160.356 164.248 254.55499 260.00101 263.89301 265.83899 269.73099 273.62299"
         y="0"
         sodipodi:role="line"
         id="tspan3663">TargetErrorInputOutput</tspan><tspan
         x="60.879002 66.709999 70.601997 74.494003 77.994003 81.886002 84.217003 88.109001 93.940002 97.832001 101.724"
         y="53.200001"
         sodipodi:role="line"
         id="tspan3665">Measurement</tspan></text>
</g></svg>